<svg width="104" height="44" viewBox="0 0 104 44" fill="none" xmlns="http://www.w3.org/2000/svg">
<path d="M27.7376 33.0128H18.4466L16.236 22.5693L12.3857 26.638L10.8211 33.0128H2.83001L9.60658 5.39079H17.598L14.7993 16.8019L25.2231 5.39079H32.8352L23.3758 15.49L27.7376 33.0128Z" fill="#1A3B64"/>
<path fill-rule="evenodd" clip-rule="evenodd" d="M26.8228 25.0218L35.038 23.6059C35.1555 25.83 36.5819 26.942 39.3171 26.942C41.4506 26.942 42.6528 26.3761 42.9312 25.2429C43.0772 24.649 42.9493 24.1852 42.5326 23.8543C42.1231 23.5235 41.3185 23.233 40.1101 22.9773C35.4952 22.0443 32.6861 20.8287 31.6781 19.3373C30.6639 17.8389 30.4127 16.0771 30.9092 14.0533C31.5471 11.4487 33.0686 9.28046 35.4667 7.55329C37.8668 5.82574 40.924 4.9637 44.633 4.9637C50.2559 4.9637 53.4156 7.22974 54.1166 11.7453L46.5709 13.8726C46.2985 12.0218 45.0482 11.0966 42.8245 11.0966C40.9737 11.0966 39.9068 11.6698 39.6256 12.8165C39.5008 13.328 39.6167 13.7282 39.9611 14.0109C40.3131 14.294 41.055 14.5648 42.194 14.8206C45.3221 15.5247 47.5188 16.146 48.7737 16.6849C50.0375 17.2234 50.9735 18.1428 51.5783 19.4474C52.1923 20.7459 52.2781 22.2789 51.8448 24.0469C51.16 26.838 49.4705 29.104 46.78 30.8374C44.0899 32.5707 40.8986 33.442 37.2182 33.442C30.4894 33.442 27.0212 30.6313 26.8228 25.0218Z" fill="#1A3B64"/>
<path fill-rule="evenodd" clip-rule="evenodd" d="M73.6228 33.0128L80.3997 5.39079H94.4212C97.3355 5.39079 99.2765 6.1238 100.254 7.5952C101.228 9.06661 101.486 10.7445 101.021 12.6373C100.685 14.0108 99.9914 15.2538 98.9379 16.3674C97.8925 17.4791 96.5517 18.2452 94.9073 18.6662C98.2669 19.5298 99.5307 21.671 98.6899 25.0972C98.1872 27.1495 97.1083 28.9791 95.4489 30.5965C93.7968 32.2051 90.9033 33.0128 86.773 33.0128H73.6228ZM85.6147 15.973H89.5371C90.5197 15.973 91.2781 15.7249 91.8077 15.2269C92.3297 14.7304 92.6698 14.1915 92.8081 13.6241C93.1844 12.0911 92.4275 11.3176 90.5347 11.3176H86.7564L85.6147 15.973ZM82.9439 26.8591H87.068C88.0973 26.8591 88.9038 26.6091 89.5117 26.1053C90.1133 25.5953 90.4943 25.0295 90.6507 24.3927C90.8055 23.758 90.7138 23.1771 90.3814 22.6459C90.0428 22.1059 89.259 21.844 88.016 21.844H84.1745L82.9439 26.8591Z" fill="#1A3B64"/>
<path fill-rule="evenodd" clip-rule="evenodd" d="M68.3143 5.39098L70.6103 0.64819L66.7662 5.39098H57.4374L50.6604 33.013L53.1491 33.001L50.9374 37.5042L54.8089 33.04L72.195 33.013L73.8124 26.4167H63.4952L64.6011 21.9073H72.5363L74.0412 15.7729H66.1071L67.0897 11.7662H77.4085L78.9716 5.39098H68.3143Z" fill="#1A3B64" stroke="#294D66" stroke-width="0.0349155" stroke-miterlimit="2.613"/>
<path fill-rule="evenodd" clip-rule="evenodd" d="M68.1836 4.45516L54.52 21.376L59.8991 21.4033L53.2153 34.0089L66.5285 17.5241L61.2607 17.5257L68.1836 4.45516Z" fill="white"/>
<path d="M53.3809 33.4395C53.5448 33.1238 55.0338 30.3145 56.6897 27.1968L59.7004 21.5281H57.0891C54.8822 21.5281 54.4953 21.4828 54.5903 21.2352C54.7649 20.7801 68.0102 4.45025 68.1176 4.55763C68.1699 4.60998 66.7122 7.49014 64.8783 10.958C63.0444 14.4258 61.5439 17.3171 61.5439 17.3831C61.5439 17.449 62.6853 17.5282 64.0802 17.5591L66.6165 17.6153L60.0561 25.742C56.4479 30.2117 53.4028 33.9013 53.2893 33.9412C53.1757 33.981 53.217 33.7553 53.3809 33.4395Z" fill="#62BE3D"/>
</svg>
